<?xml version="1.0" encoding="UTF-8" standalone="no"?>
<!-- Created with Inkscape (http://www.inkscape.org/) -->

<svg
   width="210mm"
   height="297mm"
   viewBox="0 0 210 297"
   version="1.1"
   id="svg5"
   inkscape:version="1.2.2 (732a01da63, 2022-12-09)"
   sodipodi:docname="magnifier-icon.svg"
   xmlns:inkscape="http://www.inkscape.org/namespaces/inkscape"
   xmlns:sodipodi="http://sodipodi.sourceforge.net/DTD/sodipodi-0.dtd"
   xmlns="http://www.w3.org/2000/svg"
   xmlns:svg="http://www.w3.org/2000/svg">
  <sodipodi:namedview
     id="namedview7"
     pagecolor="#ffffff"
     bordercolor="#000000"
     borderopacity="0.25"
     inkscape:showpageshadow="2"
     inkscape:pageopacity="0.0"
     inkscape:pagecheckerboard="0"
     inkscape:deskcolor="#d1d1d1"
     inkscape:document-units="mm"
     showgrid="false"
     inkscape:zoom="0.99150695"
     inkscape:cx="351.48518"
     inkscape:cy="453.85461"
     inkscape:window-width="1598"
     inkscape:window-height="1274"
     inkscape:window-x="2392"
     inkscape:window-y="0"
     inkscape:window-maximized="0"
     inkscape:current-layer="layer1" />
  <defs
     id="defs2" />
  <g
     inkscape:label="Camada 1"
     inkscape:groupmode="layer"
     id="layer1">
    <rect
       style="fill:#ffffe5;fill-opacity:1;stroke:#000000;stroke-width:0.25;stroke-opacity:1"
       id="rect234"
       width="29.435833"
       height="34.719185"
       x="6.8839197"
       y="100.08789"
       transform="rotate(-25.578954)" />
    <path
       style="fill:#ffffff;fill-opacity:1;stroke:#0000b9;stroke-width:0.25;stroke-opacity:1"
       d="m 54.104662,89.876561 c -0.0531,-0.183778 -0.162595,-0.360063 -0.159303,-0.551332 0.0031,-0.177873 0.118305,-0.335553 0.177458,-0.503329 0.04437,-0.125838 0.07138,-0.259206 0.133095,-0.3775 0.194198,-0.372239 1.080798,0.481482 1.213964,0.569481 0.05867,0.03877 0.09626,0.128252 0.166572,0.129463 0.115301,0.002 0.07477,-0.517094 0.140355,-0.799365 0.01592,-0.06849 0.09353,-0.106122 0.12946,-0.16657 0.330288,-0.555585 0.625823,0.223424 0.884461,0.09962 0.03969,-0.019 0.355549,-0.880056 0.521487,-0.8772 0.201337,0.0035 0.404216,0.0554 0.588432,0.136725 0.05842,0.02579 0.547779,0.461137 0.714263,0.18109 0.04545,-0.07646 0.03969,-0.177457 0.08873,-0.251668 0.05483,-0.08297 0.171339,-0.117736 0.214559,-0.207305 0.04928,-0.102115 0.01029,-0.229827 0.04799,-0.336766 0.06324,-0.179359 0.337434,-0.40898 0.473493,-0.540435 0.129143,-0.124777 0.327968,-0.0524 0.381127,-0.07784 0.122076,-0.05843 0.047,-0.495493 0.30329,-0.458968 0.433637,0.0618 0.962514,0.279514 1.010297,0.143988 0.01045,-0.02965 -0.05118,-0.05545 -0.04074,-0.0851 0.06139,-0.174122 0.382653,-0.335045 0.554956,-0.370242 0.09744,-0.01989 0.197577,-0.05114 0.296034,-0.0371 0.0546,0.0078 0.219446,0.245344 0.336766,0.048 0.04545,-0.07646 0.03011,-0.18476 0.08873,-0.251667 0.06031,-0.06884 0.581513,-0.312487 0.640054,-0.410975 0.04545,-0.07646 0.03414,-0.181435 0.08873,-0.251666 0.123969,-0.159496 0.701122,-0.693013 0.939718,-0.659009 0.292401,0.04167 0.460242,0.303741 0.710634,0.392023 0.186642,0.0658 0.347621,-1.107769 0.569481,-1.213966 0.205061,-0.09816 0.614179,0.358014 0.710633,0.39202 0.07269,0.02563 0.229633,-0.304828 0.258928,-0.333133 0.06321,-0.06108 0.469973,0.165699 0.503331,0.17746 0.307294,0.108342 0.04599,-0.23121 0.258927,-0.333136 0.178197,-0.0853 0.292698,0.199381 0.506964,-0.03347 0.05963,-0.06481 0.430755,-0.696978 0.643688,-0.621906 0.148296,0.05229 0.266363,0.177437 0.418232,0.218195 0.135836,0.03646 0.284872,-0.02457 0.421864,0.0073 0.196145,0.04558 0.122204,0.255299 0.377501,0.133096 0.249466,-0.119411 0.05481,-0.274527 0.09236,-0.462599 0.08283,-0.414871 0.713404,-0.01711 0.806627,-0.281504 0.115577,-0.327814 0.04713,-0.744958 0.229086,-1.051027 0.03714,-0.06248 0.751896,0.206439 0.925197,0.184719 0.285824,-0.03583 -0.371574,-0.413953 0.214559,-0.207304 0.793171,0.279645 -0.88877,-0.02352 0.544066,0.262557 0.141041,0.02816 0.01262,-0.178134 0.08873,-0.251667 0.06786,-0.06555 0.223926,-0.03323 0.255298,-0.122203 0.0332,-0.09418 -0.09615,-0.288815 0.0073,-0.421864 0.09417,-0.121154 0.442783,0.148565 0.506963,-0.03347 0.01045,-0.02965 -0.04689,-0.05426 -0.04074,-0.0851 0.04085,-0.204619 0.175344,-0.500613 0.306923,-0.6699 0.168708,-0.217061 0.468008,-0.0126 0.632795,0.01089 0.09846,0.01403 0.197577,-0.05114 0.296034,-0.0371 0.03113,0.0044 0.01237,0.09868 0.04074,0.0851 0.08509,-0.04073 -0.110466,-0.161688 -0.122203,-0.255298 -0.0036,-0.02889 0.04557,-0.196143 0.129465,-0.166562 0.02964,0.01044 0.01108,0.07464 0.04073,0.08509 0.137164,0.04836 0.830475,0.23006 0.925197,0.184719"
       id="path961" />
    <path
       style="fill:#ffffff;fill-opacity:1;stroke:#0000b9;stroke-width:0.25;stroke-opacity:1"
       d="m 55.703956,93.217694 c -0.0531,-0.183778 -0.162595,-0.360063 -0.159303,-0.551331 0.0031,-0.177874 0.118306,-0.335553 0.177458,-0.503329 0.04437,-0.125839 0.07138,-0.259207 0.133095,-0.377501 0.194198,-0.372239 1.080798,0.481482 1.213964,0.569481 0.05867,0.03877 0.09626,0.128252 0.166572,0.129463 0.115301,0.002 0.07477,-0.517094 0.140355,-0.799364 0.01592,-0.0685 0.09353,-0.106123 0.12946,-0.166571 0.330288,-0.555585 0.625823,0.223424 0.884461,0.09962 0.03969,-0.019 0.355549,-0.880057 0.521487,-0.877201 0.201337,0.0035 0.404216,0.0554 0.588432,0.136725 0.05842,0.02579 0.547779,0.461137 0.714263,0.18109 0.04545,-0.07646 0.03969,-0.177457 0.08873,-0.251668 0.05483,-0.08297 0.171339,-0.117736 0.214559,-0.207305 0.04928,-0.102115 0.01029,-0.229827 0.04799,-0.336766 0.06324,-0.179359 0.337434,-0.40898 0.473493,-0.540434 0.129144,-0.124778 0.327968,-0.0524 0.381127,-0.07784 0.122076,-0.05843 0.047,-0.495493 0.30329,-0.458968 0.433637,0.0618 0.962515,0.279514 1.010297,0.143988 0.01045,-0.02965 -0.05118,-0.05545 -0.04074,-0.0851 0.06139,-0.174121 0.382653,-0.335045 0.554956,-0.370241 0.09744,-0.01989 0.197578,-0.05114 0.296034,-0.0371 0.0546,0.0078 0.219446,0.245344 0.336766,0.048 0.04545,-0.07646 0.03011,-0.18476 0.08873,-0.251667 0.06031,-0.06884 0.581513,-0.312487 0.640054,-0.410975 0.04545,-0.07646 0.03414,-0.181434 0.08873,-0.251666 0.123969,-0.159496 0.701122,-0.693013 0.939718,-0.659009 0.292401,0.04167 0.460242,0.303741 0.710634,0.392023 0.186642,0.0658 0.347621,-1.107769 0.569481,-1.213966 0.205061,-0.09816 0.614179,0.358014 0.710633,0.392021 0.07269,0.02563 0.229633,-0.304828 0.258928,-0.333134 0.06321,-0.06108 0.469973,0.165699 0.503331,0.17746 0.307294,0.108342 0.04599,-0.23121 0.258927,-0.333136 0.178197,-0.0853 0.292698,0.199381 0.506964,-0.03347 0.05963,-0.06481 0.430755,-0.696977 0.643689,-0.621906 0.148295,0.05229 0.266362,0.177438 0.418231,0.218195 0.135836,0.03646 0.284872,-0.02457 0.421864,0.0073 0.196145,0.04558 0.122204,0.255298 0.377501,0.133095 0.249466,-0.119411 0.05481,-0.274527 0.09236,-0.462599 0.08283,-0.414871 0.713404,-0.0171 0.806627,-0.281504 0.115577,-0.327814 0.04713,-0.744958 0.229086,-1.051027 0.03713,-0.06248 0.751896,0.206439 0.925197,0.184719 0.285824,-0.03583 -0.371574,-0.413952 0.214559,-0.207304 0.793172,0.279645 -0.88877,-0.02352 0.544066,0.262557 0.141041,0.02815 0.01262,-0.178133 0.08873,-0.251667 0.06786,-0.06555 0.223926,-0.03323 0.255298,-0.122203 0.0332,-0.09418 -0.09615,-0.288815 0.0073,-0.421864 0.09417,-0.121154 0.442783,0.148565 0.506963,-0.03347 0.01045,-0.02965 -0.04689,-0.05426 -0.04074,-0.0851 0.04085,-0.204619 0.175345,-0.500613 0.306923,-0.6699 0.168708,-0.217061 0.468008,-0.0126 0.632795,0.01089 0.09846,0.01403 0.197578,-0.05114 0.296034,-0.0371 0.03114,0.0044 0.01237,0.09868 0.04074,0.0851 0.08509,-0.04073 -0.110466,-0.161688 -0.122203,-0.255298 -0.0036,-0.02889 0.04557,-0.196143 0.129465,-0.166562 0.02965,0.01045 0.01108,0.07464 0.04073,0.08509 0.137164,0.04836 0.830475,0.23006 0.925197,0.18472"
       id="path990" />
    <path
       style="fill:#ffffff;fill-opacity:1;stroke:#0000b9;stroke-width:0.25;stroke-opacity:1"
       d="m 57.303251,96.558828 c -0.0531,-0.183778 -0.162595,-0.360063 -0.159303,-0.551331 0.0031,-0.177874 0.118305,-0.335553 0.177457,-0.503329 0.04437,-0.125839 0.07138,-0.259207 0.133095,-0.377501 0.194199,-0.372239 1.080798,0.481482 1.213964,0.569481 0.05867,0.03877 0.09626,0.128252 0.166572,0.129463 0.115302,0.002 0.07477,-0.517094 0.140355,-0.799364 0.01592,-0.0685 0.09353,-0.106123 0.129461,-0.166571 0.330288,-0.555585 0.625822,0.223424 0.884461,0.09962 0.03969,-0.019 0.355548,-0.880057 0.521487,-0.877201 0.201336,0.0035 0.404215,0.0554 0.588431,0.136725 0.05842,0.02579 0.547779,0.461137 0.714264,0.18109 0.04545,-0.07646 0.03969,-0.177457 0.08873,-0.251668 0.05483,-0.08297 0.17134,-0.117736 0.214559,-0.207305 0.04928,-0.102115 0.01029,-0.229827 0.048,-0.336765 0.06324,-0.179359 0.337433,-0.408981 0.473492,-0.540435 0.129144,-0.124778 0.327968,-0.0524 0.381128,-0.07784 0.122075,-0.05843 0.047,-0.495493 0.30329,-0.458968 0.433636,0.0618 0.962514,0.279514 1.010296,0.143988 0.01045,-0.02965 -0.05118,-0.05545 -0.04074,-0.0851 0.06139,-0.174121 0.382653,-0.335045 0.554956,-0.370241 0.09744,-0.01989 0.197578,-0.05114 0.296034,-0.0371 0.0546,0.0078 0.219446,0.245344 0.336767,0.048 0.04545,-0.07646 0.03011,-0.18476 0.08873,-0.251667 0.06031,-0.06884 0.581512,-0.312487 0.640053,-0.410975 0.04545,-0.07646 0.03414,-0.181434 0.08873,-0.251666 0.123969,-0.159496 0.701122,-0.693013 0.939717,-0.659009 0.292401,0.04167 0.460243,0.303741 0.710635,0.392023 0.186641,0.0658 0.34762,-1.107769 0.56948,-1.213966 0.205062,-0.09816 0.614179,0.358014 0.710633,0.392021 0.07269,0.02563 0.229633,-0.304828 0.258929,-0.333134 0.06321,-0.06108 0.469972,0.165699 0.503331,0.17746 0.307293,0.108342 0.04599,-0.23121 0.258927,-0.333136 0.178196,-0.0853 0.292697,0.199381 0.506963,-0.03347 0.05963,-0.06481 0.430755,-0.696977 0.643689,-0.621906 0.148295,0.05229 0.266362,0.177438 0.418232,0.218195 0.135836,0.03646 0.284872,-0.02457 0.421864,0.0073 0.196144,0.04558 0.122203,0.255298 0.377501,0.133095 0.249465,-0.119411 0.05481,-0.274527 0.09236,-0.462599 0.08283,-0.414871 0.713403,-0.0171 0.806626,-0.281504 0.115578,-0.327814 0.04713,-0.744958 0.229086,-1.051027 0.03713,-0.06248 0.751897,0.206439 0.925197,0.184719 0.285825,-0.03583 -0.371573,-0.413952 0.214559,-0.207304 0.793172,0.279645 -0.88877,-0.02352 0.544067,0.262557 0.141041,0.02815 0.01262,-0.178133 0.08873,-0.251667 0.06786,-0.06555 0.223926,-0.03323 0.255297,-0.122203 0.0332,-0.09418 -0.09615,-0.288815 0.0073,-0.421864 0.09417,-0.121154 0.442783,0.148565 0.506964,-0.03347 0.01045,-0.02965 -0.04689,-0.05426 -0.04074,-0.0851 0.04085,-0.204618 0.175344,-0.500613 0.306923,-0.6699 0.168708,-0.217061 0.468007,-0.0126 0.632794,0.01089 0.09846,0.01403 0.197578,-0.05114 0.296034,-0.0371 0.03113,0.0044 0.01237,0.09868 0.04074,0.0851 0.08509,-0.04073 -0.110466,-0.161688 -0.122203,-0.255298 -0.0036,-0.02889 0.04557,-0.196143 0.129465,-0.166562 0.02965,0.01045 0.01108,0.07464 0.04073,0.08509 0.137164,0.04836 0.830474,0.23006 0.925197,0.18472"
       id="path992" />
    <path
       style="fill:#ffffff;fill-opacity:1;stroke:#0000b9;stroke-width:0.25;stroke-opacity:1"
       d="m 58.902545,99.899961 c -0.0531,-0.183778 -0.162595,-0.360063 -0.159303,-0.551331 0.0031,-0.177874 0.118305,-0.335553 0.177458,-0.503329 0.04437,-0.125839 0.07138,-0.259206 0.133094,-0.377501 0.194199,-0.372239 1.080798,0.481482 1.213964,0.569481 0.05867,0.03877 0.09626,0.128252 0.166572,0.129463 0.115302,0.002 0.07477,-0.517094 0.140355,-0.799364 0.01592,-0.0685 0.09353,-0.106123 0.129461,-0.166571 0.330288,-0.555584 0.625822,0.223424 0.884461,0.09962 0.03969,-0.019 0.355548,-0.880057 0.521487,-0.877201 0.201336,0.0035 0.404215,0.0554 0.588431,0.136726 0.05842,0.02579 0.547779,0.461136 0.714264,0.18109 0.04545,-0.07646 0.03969,-0.177458 0.08873,-0.251669 0.05483,-0.08297 0.17134,-0.117736 0.214559,-0.207304 0.04928,-0.102116 0.01029,-0.229828 0.048,-0.336766 0.06324,-0.179359 0.337433,-0.40898 0.473492,-0.540435 0.129144,-0.124778 0.327968,-0.0524 0.381128,-0.07784 0.122076,-0.05843 0.047,-0.495492 0.30329,-0.458968 0.433636,0.0618 0.962514,0.279514 1.010296,0.143988 0.01045,-0.02965 -0.05118,-0.05545 -0.04074,-0.0851 0.06139,-0.174122 0.382653,-0.335046 0.554956,-0.370242 0.09744,-0.01989 0.197578,-0.05114 0.296034,-0.0371 0.0546,0.0078 0.219446,0.245344 0.336767,0.048 0.04545,-0.07646 0.03011,-0.184759 0.08873,-0.251667 0.06031,-0.06884 0.581512,-0.312487 0.640053,-0.410975 0.04545,-0.07646 0.03414,-0.181434 0.08873,-0.251666 0.123969,-0.159496 0.701122,-0.693013 0.939717,-0.659009 0.292401,0.04167 0.460243,0.303741 0.710635,0.392024 0.186641,0.0658 0.34762,-1.107769 0.56948,-1.213967 0.205062,-0.09816 0.61418,0.358014 0.710633,0.392021 0.07269,0.02563 0.229634,-0.304828 0.258929,-0.333134 0.06321,-0.06108 0.469973,0.165699 0.503331,0.177461 0.307294,0.108342 0.04599,-0.231211 0.258927,-0.333137 0.178196,-0.0853 0.292697,0.199381 0.506963,-0.03347 0.05963,-0.06481 0.430755,-0.696977 0.643689,-0.621906 0.148295,0.05229 0.266362,0.177438 0.418232,0.218195 0.135836,0.03646 0.284872,-0.02457 0.421864,0.0073 0.196144,0.04558 0.122203,0.255299 0.377501,0.133096 0.249465,-0.119412 0.05481,-0.274528 0.09236,-0.462599 0.08283,-0.414871 0.713404,-0.01711 0.806626,-0.281505 0.115578,-0.327814 0.04713,-0.744958 0.229086,-1.051027 0.03713,-0.06248 0.751897,0.206439 0.925197,0.184719 0.285825,-0.03583 -0.371573,-0.413952 0.214559,-0.207304 0.793172,0.279645 -0.888769,-0.02352 0.544067,0.262558 0.141041,0.02815 0.01262,-0.178134 0.08873,-0.251668 0.06786,-0.06555 0.223926,-0.03323 0.255297,-0.122203 0.0332,-0.09418 -0.09615,-0.288815 0.0073,-0.421864 0.09417,-0.121154 0.442784,0.148565 0.506964,-0.03347 0.01045,-0.02965 -0.04689,-0.05426 -0.04074,-0.0851 0.04085,-0.204618 0.175344,-0.500613 0.306923,-0.669899 0.168708,-0.217062 0.468007,-0.0126 0.632794,0.01089 0.09846,0.01404 0.197578,-0.05114 0.296034,-0.0371 0.03113,0.0044 0.01237,0.09868 0.04074,0.0851 0.08509,-0.04073 -0.110466,-0.161688 -0.122203,-0.255298 -0.0036,-0.02889 0.04557,-0.196142 0.129465,-0.166561 0.02965,0.01044 0.01108,0.07464 0.04073,0.08509 0.137164,0.04836 0.830474,0.23006 0.925197,0.18472"
       id="path994" />
    <path
       style="fill:#ffffff;fill-opacity:1;stroke:#0000b9;stroke-width:0.25;stroke-opacity:1"
       d="m 60.501839,103.2411 c -0.0531,-0.18378 -0.162595,-0.36007 -0.159303,-0.55134 0.0031,-0.17787 0.118306,-0.33555 0.177458,-0.50333 0.04437,-0.12583 0.07138,-0.2592 0.133095,-0.3775 0.194198,-0.37223 1.080798,0.48149 1.213964,0.56949 0.05867,0.0388 0.09626,0.12825 0.166572,0.12946 0.115301,0.002 0.07477,-0.5171 0.140355,-0.79937 0.01592,-0.0685 0.09353,-0.10612 0.12946,-0.16657 0.330288,-0.55558 0.625823,0.22343 0.884461,0.0996 0.03969,-0.019 0.355549,-0.88006 0.521487,-0.87721 0.201337,0.003 0.404216,0.0554 0.588432,0.13673 0.05842,0.0258 0.547779,0.46114 0.714263,0.18109 0.04545,-0.0765 0.03969,-0.17746 0.08873,-0.25167 0.05483,-0.083 0.171339,-0.11773 0.214559,-0.2073 0.04928,-0.10212 0.01029,-0.22983 0.04799,-0.33677 0.06324,-0.17936 0.337434,-0.408979 0.473493,-0.540434 0.129144,-0.124778 0.327968,-0.0524 0.381128,-0.07784 0.122075,-0.05843 0.047,-0.495492 0.303289,-0.458968 0.433637,0.0618 0.962515,0.279514 1.010297,0.143989 0.01045,-0.02965 -0.05118,-0.05545 -0.04074,-0.0851 0.06139,-0.174122 0.382653,-0.335046 0.554956,-0.370242 0.09744,-0.01989 0.197578,-0.05114 0.296034,-0.0371 0.0546,0.0078 0.219446,0.245344 0.336766,0.048 0.04545,-0.07646 0.03011,-0.184759 0.08873,-0.251667 0.06031,-0.06884 0.581513,-0.312487 0.640054,-0.410975 0.04545,-0.07646 0.03414,-0.181434 0.08873,-0.251666 0.123969,-0.159496 0.701122,-0.693012 0.939718,-0.659009 0.292401,0.04167 0.460242,0.303741 0.710634,0.392024 0.186642,0.0658 0.347621,-1.107769 0.569481,-1.213967 0.205061,-0.09816 0.614179,0.358014 0.710633,0.392021 0.07269,0.02563 0.229633,-0.304828 0.258928,-0.333134 0.06321,-0.06108 0.469973,0.1657 0.503331,0.177461 0.307294,0.108342 0.04599,-0.231211 0.258927,-0.333137 0.178197,-0.0853 0.292698,0.199381 0.506964,-0.03347 0.05963,-0.06481 0.430755,-0.696977 0.643689,-0.621905 0.148295,0.05229 0.266362,0.177437 0.418231,0.218194 0.135836,0.03645 0.284872,-0.02457 0.421864,0.0073 0.196145,0.04558 0.122204,0.255299 0.377501,0.133096 0.249466,-0.119411 0.05481,-0.274528 0.09236,-0.462599 0.08283,-0.414871 0.713404,-0.01711 0.806627,-0.281505 0.115577,-0.327814 0.04713,-0.744958 0.229086,-1.051027 0.03714,-0.06248 0.751896,0.206439 0.925197,0.18472 0.285824,-0.03583 -0.371574,-0.413953 0.214559,-0.207305 0.793172,0.279645 -0.88877,-0.02352 0.544066,0.262558 0.141041,0.02815 0.01262,-0.178134 0.08873,-0.251668 0.06786,-0.06555 0.223927,-0.03323 0.255298,-0.122203 0.0332,-0.09418 -0.09615,-0.288815 0.0073,-0.421864 0.09417,-0.121153 0.442783,0.148565 0.506963,-0.03347 0.01045,-0.02965 -0.04689,-0.05426 -0.04074,-0.0851 0.04085,-0.204618 0.175345,-0.500613 0.306923,-0.669899 0.168708,-0.217061 0.468008,-0.0126 0.632795,0.01089 0.09846,0.01404 0.197578,-0.05114 0.296034,-0.0371 0.03114,0.0044 0.01237,0.09868 0.04074,0.0851 0.08509,-0.04073 -0.110466,-0.161688 -0.122203,-0.255298 -0.0036,-0.02889 0.04557,-0.196142 0.129465,-0.166561 0.02964,0.01044 0.01108,0.07464 0.04073,0.08509 0.137164,0.04836 0.830475,0.23006 0.925197,0.184719"
       id="path996" />
    <path
       style="fill:#ffffff;fill-opacity:1;stroke:#0000b9;stroke-width:0.25;stroke-opacity:1"
       d="m 62.101132,106.58223 c -0.0531,-0.18378 -0.162593,-0.36006 -0.159301,-0.55133 0.0031,-0.17788 0.118305,-0.33556 0.177458,-0.50333 0.04435,-0.12588 0.07138,-0.25921 0.133094,-0.3775 0.194199,-0.37224 1.080797,0.48148 1.213964,0.56948 0.05867,0.0388 0.09626,0.12825 0.166571,0.12946 0.115314,0.002 0.07477,-0.51709 0.140355,-0.79936 0.01592,-0.0685 0.09355,-0.10609 0.129439,-0.16662 0.330288,-0.55559 0.625823,0.22343 0.884462,0.0996 0.03969,-0.019 0.35555,-0.88005 0.521488,-0.87719 0.201358,0.004 0.404215,0.0554 0.58843,0.13672 0.05843,0.0258 0.54778,0.46114 0.714265,0.18109 0.04547,-0.0764 0.03969,-0.17746 0.08873,-0.25167 0.05482,-0.083 0.171349,-0.11771 0.214581,-0.20726 0.04929,-0.10208 0.01029,-0.22982 0.04799,-0.33676 0.06324,-0.17937 0.337432,-0.40899 0.47349,-0.54044 0.129139,-0.12479 0.327951,-0.0524 0.38111,-0.0779 0.122076,-0.0584 0.047,-0.4955 0.303289,-0.45897 0.433637,0.0618 0.962515,0.27951 1.010299,0.14399 0.01047,-0.0296 -0.05117,-0.0554 -0.04072,-0.0851 0.06139,-0.17412 0.382651,-0.33505 0.554935,-0.37028 0.09743,-0.0199 0.197586,-0.0511 0.296055,-0.0371 0.0546,0.008 0.219448,0.24535 0.336766,0.048 0.04547,-0.0764 0.03011,-0.18475 0.08873,-0.25166 0.06029,-0.0689 0.581508,-0.3125 0.640031,-0.41102 0.04547,-0.0764 0.03414,-0.18143 0.08873,-0.25167 0.123986,-0.15946 0.701121,-0.69301 0.939719,-0.659 0.292399,0.0417 0.460241,0.30374 0.710634,0.39202 0.186639,0.0658 0.347621,-1.107767 0.569481,-1.213965 0.205061,-0.09816 0.614179,0.358015 0.710634,0.392025 0.07269,0.0256 0.229632,-0.304833 0.258928,-0.333136 0.06321,-0.06108 0.469972,0.165696 0.50333,0.177456 0.307294,0.10834 0.04599,-0.231206 0.258928,-0.333132 0.178197,-0.0853 0.292697,0.199378 0.506963,-0.03347 0.05964,-0.0648 0.430753,-0.69698 0.643687,-0.621907 0.148296,0.05229 0.266363,0.177437 0.418231,0.218191 0.135823,0.03643 0.284875,-0.02456 0.421864,0.0073 0.196145,0.04558 0.122204,0.2553 0.377501,0.133097 0.249466,-0.119411 0.05481,-0.274521 0.09236,-0.462595 0.08283,-0.414874 0.713405,-0.0171 0.806605,-0.28155 0.115575,-0.327819 0.04713,-0.744961 0.229085,-1.051029 0.03714,-0.06246 0.751896,0.206439 0.925196,0.184717 0.285829,-0.03582 -0.371574,-0.413953 0.21458,-0.20726 0.793175,0.279652 -0.888769,-0.02351 0.544068,0.26256 0.141045,0.02816 0.01261,-0.178136 0.08873,-0.251665 0.06787,-0.06553 0.223922,-0.03324 0.255298,-0.122203 0.03321,-0.09417 -0.09615,-0.288813 0.0073,-0.421861 0.09418,-0.121136 0.44278,0.148558 0.506962,-0.03347 0.01047,-0.02962 -0.0469,-0.05427 -0.04071,-0.08506 0.04085,-0.204622 0.175345,-0.50061 0.306922,-0.669901 0.168706,-0.217064 0.468006,-0.0126 0.632796,0.0109 0.09847,0.01406 0.197587,-0.05112 0.296056,-0.03706 0.03112,0.0044 0.01235,0.09864 0.04071,0.08506 0.08509,-0.04073 -0.110468,-0.161692 -0.122204,-0.2553 -0.0036,-0.02887 0.04558,-0.196141 0.129483,-0.166525 0.02964,0.01043 0.01108,0.07463 0.04071,0.08506 0.137163,0.04836 0.830473,0.230058 0.925196,0.184717"
       id="path998" />
    <path
       style="fill:#ffffff;fill-opacity:1;stroke:#0000b9;stroke-width:0.25;stroke-opacity:1"
       d="m 63.700428,109.92336 c -0.0531,-0.18377 -0.162597,-0.36006 -0.159305,-0.55133 0.0031,-0.17788 0.118309,-0.33555 0.177458,-0.50333 0.04439,-0.12579 0.07138,-0.2592 0.133094,-0.3775 0.194199,-0.37224 1.080802,0.48149 1.213968,0.56949 0.05867,0.0388 0.09626,0.12825 0.166571,0.12946 0.115314,0.002 0.07477,-0.51709 0.140355,-0.79937 0.01592,-0.0685 0.09355,-0.10608 0.129482,-0.16652 0.330288,-0.55559 0.625824,0.22342 0.884462,0.0996 0.03969,-0.019 0.355546,-0.88006 0.521484,-0.87721 0.201358,0.004 0.404215,0.0554 0.588435,0.13674 0.05843,0.0258 0.547775,0.46113 0.71426,0.18108 0.04547,-0.0764 0.03969,-0.17745 0.08873,-0.25167 0.05482,-0.083 0.171349,-0.11772 0.214538,-0.20735 0.04929,-0.10209 0.01029,-0.22983 0.04799,-0.33676 0.06324,-0.17936 0.337432,-0.40899 0.473494,-0.54043 0.12914,-0.12479 0.327951,-0.0524 0.381111,-0.0779 0.122075,-0.0584 0.047,-0.4955 0.303289,-0.45897 0.433636,0.0618 0.962514,0.27951 1.010298,0.14399 0.01047,-0.0296 -0.05117,-0.0554 -0.04076,-0.0851 0.06139,-0.17412 0.382651,-0.33505 0.554978,-0.3702 0.09743,-0.0199 0.197586,-0.0511 0.296012,-0.0371 0.0546,0.008 0.219444,0.24534 0.336766,0.048 0.04547,-0.0764 0.03011,-0.18476 0.08873,-0.25166 0.06033,-0.0688 0.581508,-0.3125 0.640075,-0.41093 0.04547,-0.0764 0.03414,-0.18144 0.08873,-0.25167 0.123987,-0.15946 0.701122,-0.69301 0.939715,-0.65901 0.292403,0.0417 0.460245,0.30374 0.710634,0.39202 0.186643,0.0658 0.347621,-1.10777 0.569481,-1.21397 0.205061,-0.0982 0.614179,0.35802 0.710634,0.39203 0.07269,0.0256 0.229632,-0.30483 0.258928,-0.33314 0.06321,-0.0611 0.469972,0.1657 0.50333,0.17746 0.307294,0.10834 0.04599,-0.23121 0.258928,-0.33313 0.178197,-0.0853 0.292696,0.19937 0.506963,-0.0335 0.05964,-0.0648 0.430757,-0.69697 0.643692,-0.6219 0.148291,0.0523 0.266362,0.17744 0.41823,0.2182 0.135823,0.0364 0.284871,-0.0246 0.421864,0.007 0.196146,0.0456 0.122204,0.2553 0.377502,0.13309 0.249465,-0.11941 0.05481,-0.27453 0.09236,-0.4626 0.08284,-0.41487 0.713405,-0.0171 0.806648,-0.28146 0.115579,-0.32781 0.04713,-0.74495 0.229089,-1.05102 0.03714,-0.0625 0.751897,0.20644 0.925196,0.18472 0.285829,-0.0358 -0.371573,-0.41396 0.214537,-0.20735 0.793171,0.27964 -0.888768,-0.0235 0.544068,0.26256 0.141045,0.0282 0.01262,-0.17814 0.08873,-0.25168 0.06787,-0.0655 0.223922,-0.0332 0.255297,-0.1222 0.03321,-0.0942 -0.09615,-0.28881 0.0073,-0.42186 0.09418,-0.12114 0.442784,0.14856 0.506962,-0.0335 0.01047,-0.0296 -0.0469,-0.0543 -0.04076,-0.0851 0.04086,-0.20462 0.175346,-0.500615 0.306927,-0.669897 0.168706,-0.217063 0.468006,-0.0126 0.632792,0.01089 0.09847,0.01406 0.197587,-0.05112 0.296056,-0.03705 0.03112,0.0044 0.01235,0.09864 0.04071,0.08506 0.08509,-0.04073 -0.110464,-0.161683 -0.122204,-0.255299 -0.0036,-0.02887 0.04557,-0.196141 0.129482,-0.166526 0.02964,0.01043 0.01108,0.07463 0.04072,0.08506 0.137163,0.04836 0.830477,0.230066 0.9252,0.184726"
       id="path1000" />
    <path
       style="fill:#ffffff;fill-opacity:1;stroke:#0000b9;stroke-width:0.25;stroke-opacity:1"
       d="m 65.299724,113.2645 c -0.0531,-0.18377 -0.162597,-0.36007 -0.159304,-0.55133 0.0031,-0.17788 0.118304,-0.33556 0.177458,-0.50333 0.04439,-0.1258 0.07138,-0.25922 0.133094,-0.37751 0.194198,-0.37223 1.080801,0.48149 1.213967,0.56949 0.05867,0.0388 0.09626,0.12825 0.166571,0.12946 0.115314,0.002 0.07477,-0.51709 0.140355,-0.79936 0.01592,-0.0685 0.09355,-0.10609 0.129483,-0.16652 0.330283,-0.5556 0.625823,0.22342 0.884462,0.0996 0.03969,-0.019 0.355545,-0.88006 0.521484,-0.87721 0.201357,0.004 0.404214,0.0554 0.588434,0.13673 0.05843,0.0258 0.54778,0.46114 0.71426,0.18109 0.04547,-0.0764 0.03969,-0.17745 0.08873,-0.25167 0.05482,-0.083 0.171348,-0.11772 0.214537,-0.20735 0.04929,-0.10209 0.01029,-0.22983 0.04799,-0.33677 0.06324,-0.17936 0.337433,-0.40898 0.473494,-0.54043 0.12914,-0.12478 0.327951,-0.0524 0.381111,-0.0779 0.122075,-0.0584 0.04699,-0.4955 0.303289,-0.45897 0.433637,0.0618 0.962515,0.27952 1.010298,0.144 0.01047,-0.0296 -0.05117,-0.0554 -0.04071,-0.0851 0.06139,-0.17412 0.382651,-0.33505 0.554934,-0.37029 0.09743,-0.0199 0.197586,-0.0511 0.296055,-0.0371 0.0546,0.008 0.219444,0.24534 0.336766,0.048 0.04547,-0.0764 0.03011,-0.18476 0.08873,-0.25166 0.06029,-0.0689 0.581508,-0.3125 0.640032,-0.41102 0.04547,-0.0764 0.03414,-0.18144 0.08873,-0.25167 0.123986,-0.15946 0.701117,-0.69302 0.939714,-0.65902 0.292403,0.0417 0.460245,0.30375 0.710634,0.39203 0.186643,0.0658 0.347621,-1.10777 0.569481,-1.21397 0.205062,-0.0982 0.614179,0.35802 0.710634,0.39202 0.07269,0.0256 0.229632,-0.30483 0.258928,-0.33313 0.06321,-0.0611 0.469972,0.1657 0.50333,0.17746 0.307294,0.10834 0.04599,-0.23121 0.258929,-0.33314 0.178196,-0.0853 0.292696,0.19938 0.506962,-0.0335 0.05964,-0.0648 0.430758,-0.69697 0.643692,-0.6219 0.148295,0.0523 0.266362,0.17744 0.41823,0.21819 0.135823,0.0364 0.284871,-0.0246 0.421864,0.007 0.196146,0.0456 0.122204,0.2553 0.377502,0.1331 0.249465,-0.11941 0.05481,-0.27453 0.09236,-0.4626 0.08284,-0.41487 0.713405,-0.0171 0.806648,-0.28146 0.11558,-0.32781 0.04713,-0.74495 0.22909,-1.05102 0.03714,-0.0625 0.751896,0.20644 0.925195,0.18471 0.285829,-0.0358 -0.371573,-0.41395 0.214581,-0.20726 0.793175,0.27966 -0.888769,-0.0235 0.544067,0.26256 0.141046,0.0282 0.01262,-0.17813 0.08873,-0.25167 0.06787,-0.0655 0.223922,-0.0332 0.255298,-0.1222 0.03321,-0.0942 -0.09615,-0.28882 0.0073,-0.42186 0.09418,-0.12114 0.442784,0.14856 0.506962,-0.0335 0.01047,-0.0296 -0.0469,-0.0543 -0.04076,-0.0851 0.04085,-0.20461 0.175345,-0.50061 0.306926,-0.66989 0.168707,-0.21706 0.468006,-0.0126 0.632793,0.0109 0.09847,0.0141 0.197586,-0.0511 0.296055,-0.0371 0.03112,0.004 0.01235,0.0986 0.04071,0.0851 0.08509,-0.0407 -0.110463,-0.16168 -0.122199,-0.25529 -0.0036,-0.0289 0.04557,-0.19615 0.129482,-0.16653 0.02964,0.0104 0.01108,0.0746 0.04072,0.0851 0.137163,0.0484 0.830473,0.23006 0.925195,0.18472"
       id="path1002" />
    <path
       id="rect1123"
       style="fill:#605222;fill-opacity:1;stroke:#000000;stroke-width:0.25"
       d="m 69.287507,101.61194 1.451309,-1.48386 1.45131,-1.483852 c 0,0 2.254435,2.945182 3.575703,4.237462 1.321266,1.29229 2.934218,2.25317 4.315711,3.48086 1.902589,1.69076 5.458926,5.33919 5.458926,5.33919 0,0 0.821488,-0.71191 1.348136,-0.16182 0.526648,0.55009 0.238114,0.97308 0.238114,0.97308 0,0 0.349728,-0.46812 0.978131,0.21649 0.628398,0.68459 -0.131885,1.35139 -0.131885,1.35139 l -1.45131,1.48386 -1.451309,1.48385 c 0,0 -0.609941,0.76718 -1.348137,0.16182 -0.738196,-0.60536 -0.23812,-0.97309 -0.23812,-0.97309 0,0 -0.5061,0.31518 -0.978125,-0.21647 -0.472027,-0.53166 0.131886,-1.3514 0.131886,-1.3514 0,0 -3.726388,-3.47456 -5.458926,-5.33919 -1.258014,-1.35393 -2.254433,-2.94517 -3.5757,-4.23746 -1.321267,-1.29229 -4.315714,-3.48086 -4.315714,-3.48086 z"
       sodipodi:nodetypes="cccssczczccczczcssc" />
    <ellipse
       style="fill:#ffffe5;fill-opacity:1;stroke:#000000;stroke-width:0.5;stroke-dasharray:none;stroke-opacity:1"
       id="path1069"
       cx="-22.121967"
       cy="109.28065"
       rx="11.557338"
       ry="11.793201"
       transform="rotate(-45.635311)" />
    <g
       aria-label="Magnifier"
       transform="rotate(-26.43455)"
       id="text1286"
       style="font-weight:600;font-size:4.36304px;font-family:'Lucida Sans';-inkscape-font-specification:'Lucida Sans, Semi-Bold';text-align:center;text-anchor:middle;fill:#0000b9;stroke:#000000;stroke-width:0.220851">
      <path
         d="m 6.4404103,111.63075 -0.7498974,0.13421 q 0.1768224,-0.80103 0.1768224,-1.32297 0,-0.37921 -0.1789528,-0.70729 -0.1768225,-0.32595 -0.5091634,-0.40051 -0.3856007,0.50703 -0.3856007,1.29101 0,0.0469 0.019173,0.0596 0.017043,0.0149 0.1278235,0.0341 0.1086499,0.0192 0.2854723,0.0256 -0.3131674,0.32595 -0.4111654,0.39626 l -0.093737,0.002 q -0.3323409,0 -0.3323409,-0.33873 0,-0.27056 0.1193019,-0.6093 0.1214322,-0.33873 0.349384,-0.71794 0.2300822,-0.38773 0.556032,-0.65829 0.1704312,0.0192 0.321689,0.0703 0.1512577,0.049 0.2854723,0.13209 0.136345,0.081 0.2471253,0.18534 0.3429929,0.33021 0.3834703,0.86707 0.2386038,-0.37282 0.4559036,-0.61568 0.2194302,-0.24287 0.4239477,-0.3643 0.2066479,-0.12569 0.4345997,-0.19599 0.2300822,-0.0724 0.4814683,-0.0895 0.093737,0.21943 0.1619097,0.4836 0.070303,0.26204 0.1086499,0.54964 0.2258214,-0.28121 0.6604211,-0.50277 0.4324693,-0.22156 0.867069,-0.30678 0.400513,0.86281 0.400513,1.5914 0,0.3856 -0.102258,0.7499 -0.100129,0.35791 -0.279082,0.82446 -0.8180695,0.55603 -1.5210984,0.55603 -0.4154262,0 -0.9501542,-0.24925 l -0.057521,-0.35791 q 0.4282086,0.16617 0.9458935,0.16617 0.6774642,0 1.4060577,-0.25565 -0.03835,-1.21219 -0.4686859,-2.54368 -0.4026438,0.21517 -0.6732034,0.74137 -0.2748204,0.52621 -0.321689,1.37837 -0.1683008,0.0128 -0.8052876,0.12782 0.05326,-0.58586 0.05326,-1.11419 0,-0.75203 -0.1533881,-1.35493 -0.7626798,0.62846 -1.2782344,2.33917 z"
         style="font-weight:normal;font-family:'Matura MT Script Capitals';-inkscape-font-specification:'Matura MT Script Capitals, Normal';stroke:none"
         id="path2144" />
      <path
         d="m 11.525653,110.34612 0.04687,0.83724 q 0.117172,-0.12995 0.232213,-0.29186 0.115041,-0.16404 0.195996,-0.30678 -0.117172,-0.1683 -0.475077,-0.2386 z m 0.0085,-0.51342 q 0.03196,0.009 0.385601,0.0746 0.319559,0.0575 0.421817,0.0895 0.100129,0.0362 0.189605,0.11504 0.08948,0.0788 0.134215,0.22156 0.04474,0.1406 0.04474,0.38134 l -0.01065,0.62633 q 0,0.11078 0.0213,0.25991 -0.198126,0.032 -0.726463,0.18321 0.03835,-0.29186 0.03835,-0.80315 -0.03622,0.0596 -0.210909,0.25138 -0.174692,0.19174 -0.498511,0.52408 -0.249256,-0.066 -0.383471,-0.12782 -0.0085,-0.081 -0.03409,-0.25139 -0.03622,-0.2663 -0.03622,-0.48147 0,-0.31104 0.129953,-0.52407 0.125693,-0.21091 0.534728,-0.53899 z"
         style="font-weight:normal;font-family:'Matura MT Script Capitals';-inkscape-font-specification:'Matura MT Script Capitals, Normal';stroke:none"
         id="path2146" />
      <path
         d="m 13.660304,110.27156 v 0.94589 q 0.08309,-0.049 0.262038,-0.33234 0.181083,-0.2876 0.202387,-0.35791 -0.259908,-0.20877 -0.464425,-0.25564 z m -0.05113,-0.43673 q 0.632726,0 0.916068,0.17682 0.279081,0.17682 0.279081,0.54325 0,0.1683 -0.02556,0.4346 l -0.05113,0.60077 q -0.01278,0.27056 -0.03622,0.38986 -0.0213,0.11291 -0.125693,0.2876 -0.100129,0.17043 -0.26843,0.33447 -0.176822,0.16831 -0.240734,0.20026 -0.07669,0.0362 -0.232212,0.0362 -0.48786,0 -0.741376,-0.23648 l -0.03622,-0.44099 0.336602,-0.31955 q 0.170431,0.29186 0.70729,0.34938 l -0.01065,-0.54964 q -0.01065,-0.48786 -0.01704,-0.55177 -0.144866,0.20025 -0.421817,0.43247 -0.112911,0.098 -0.144866,0.15338 -0.168301,-0.0192 -0.413296,-0.12995 0,0.002 -0.03409,-0.147 -0.05965,-0.24073 -0.05965,-0.44099 0,-0.24712 0.07882,-0.39625 0.07456,-0.14487 0.255647,-0.36217 0.225821,-0.26203 0.285472,-0.36429 z"
         style="font-weight:normal;font-family:'Matura MT Script Capitals';-inkscape-font-specification:'Matura MT Script Capitals, Normal';stroke:none"
         id="path2148" />
      <path
         d="m 15.647958,109.89022 0.204518,-0.0618 v 0.27908 q 0.05965,-0.0362 0.213039,-0.12357 0.05113,-0.0277 0.100128,-0.0596 l 0.181083,-0.10865 q 0.198127,0.0277 0.302516,0.0682 0.100128,0.0405 0.16617,0.12143 0.06391,0.0788 0.08735,0.15978 0.0213,0.0724 0.0213,0.24073 0,0.20026 -0.03835,0.47295 -0.04048,0.28973 -0.04474,0.49851 l -0.394122,0.25139 -0.05965,0.0405 q -0.170431,0.11718 -0.279081,0.15978 0.123562,-0.59012 0.123562,-0.92459 0,-0.40264 -0.176822,-0.70729 -0.0064,0.009 -0.07669,0.0767 l -0.03835,0.0426 -0.08735,0.0873 0.01065,1.22498 q -0.347254,0.0106 -0.722203,0.10226 0,-0.11079 0.0021,-0.147 0.0043,-0.13209 0.0043,-0.15765 v -0.049 q -0.0064,-0.0895 -0.0064,-0.12569 v -0.50277 q 0,-0.38134 -0.01278,-0.68386 0.02769,-0.009 0.06391,-0.0192 0.03622,-0.0128 0.08095,-0.0277 0.04687,-0.0149 0.098,-0.0341 z"
         style="font-weight:normal;font-family:'Matura MT Script Capitals';-inkscape-font-specification:'Matura MT Script Capitals, Normal';stroke:none"
         id="path2150" />
      <path
         d="m 17.113667,110.43134 0.05752,-0.2663 q 0.428208,-0.0703 0.98211,-0.33234 v 0.37495 l -0.0064,0.15978 q 0,0.0319 0.0021,0.0575 0.0021,0.0703 0.0021,0.19386 0,0.0554 0.0021,0.0895 l 0.01491,0.37495 q 0.0043,0.12143 0.03195,0.54538 -0.43886,0.0767 -0.762679,0.11504 0.02982,-0.26843 0.02982,-0.7989 l -0.0085,-0.53473 q -0.08948,0.0362 -0.191735,0.0362 -0.07669,0 -0.153388,-0.0149 z m 0.630596,-1.5701 q 0.159779,0 0.276951,0.11078 0.115041,0.11078 0.115041,0.28121 0,0.15978 -0.115041,0.27482 -0.117172,0.11504 -0.276951,0.11504 -0.159779,0 -0.274821,-0.11504 -0.115041,-0.11291 -0.115041,-0.27482 0,-0.16191 0.115041,-0.27695 0.112911,-0.11504 0.274821,-0.11504 z"
         style="font-weight:normal;font-family:'Matura MT Script Capitals';-inkscape-font-specification:'Matura MT Script Capitals, Normal';stroke:none"
         id="path2152" />
      <path
         d="m 18.811589,109.90939 -0.02983,-0.37282 q 0.181083,-0.32169 0.404774,-0.48147 0.225822,-0.16191 0.494251,-0.16191 0.187474,0 0.404774,0.0618 0.03196,0.19386 0.05539,0.29612 l -0.119302,0.41117 q -0.306776,-0.24287 -0.538988,-0.30891 0,0.30678 -0.01065,0.37708 -0.0085,0.0469 -0.01917,0.14486 h 0.308907 q 0.176822,0 0.355775,-0.009 l -0.121432,0.42608 q -0.03196,0.004 -0.07456,0.006 -0.04048,0.002 -0.117171,0.0106 -0.123563,0.017 -0.328081,0.0213 l 0.0064,0.4559 q 0.01278,0.68386 0.03622,1.05881 l -0.394122,0.10225 q -0.27056,0.0682 -0.32808,0.0937 l -0.02983,-1.64466 -0.287602,0.0277 q 0.191735,-0.33235 0.332341,-0.51556 z"
         style="font-weight:normal;font-family:'Matura MT Script Capitals';-inkscape-font-specification:'Matura MT Script Capitals, Normal';stroke:none"
         id="path2154" />
      <path
         d="m 20.157996,110.43134 0.05752,-0.2663 q 0.428209,-0.0703 0.98211,-0.33234 v 0.37495 l -0.0064,0.15978 q 0,0.0319 0.0021,0.0575 0.0021,0.0703 0.0021,0.19386 0,0.0554 0.0021,0.0895 l 0.01491,0.37495 q 0.0043,0.12143 0.03196,0.54538 -0.43886,0.0767 -0.76268,0.11504 0.02983,-0.26843 0.02983,-0.7989 l -0.0085,-0.53473 q -0.08948,0.0362 -0.191735,0.0362 -0.07669,0 -0.153388,-0.0149 z m 0.630595,-1.5701 q 0.15978,0 0.276951,0.11078 0.115041,0.11078 0.115041,0.28121 0,0.15978 -0.115041,0.27482 -0.117171,0.11504 -0.276951,0.11504 -0.159779,0 -0.27482,-0.11504 -0.115041,-0.11291 -0.115041,-0.27482 0,-0.16191 0.115041,-0.27695 0.112911,-0.11504 0.27482,-0.11504 z"
         style="font-weight:normal;font-family:'Matura MT Script Capitals';-inkscape-font-specification:'Matura MT Script Capitals, Normal';stroke:none"
         id="path2156" />
      <path
         d="m 22.299038,110.25451 -0.05539,0.51982 q 0.185344,0 0.398383,-0.0128 0.0043,-0.14061 0.0043,-0.13422 0,-0.18108 -0.09587,-0.27269 -0.098,-0.0937 -0.251386,-0.10013 z m -0.643378,-0.0213 0.479337,-0.4069 0.573076,0.0426 q 0.27695,0.0234 0.391991,0.13848 0.119302,0.1193 0.119302,0.25991 0,0.0618 -0.01704,0.15978 -0.02343,0.11504 -0.049,0.34299 -0.291863,0.15126 -0.443121,0.17682 -0.153388,0.0256 -0.293994,0.0256 -0.05326,0 -0.132084,-0.0107 0.208778,0.25991 0.406904,0.25991 0.234343,0 0.421818,-0.17682 h 0.01704 q -0.213039,0.66468 -0.788245,0.66468 -0.298254,0 -0.432469,-0.0831 -0.134215,-0.0831 -0.204517,-0.24074 -0.07243,-0.15339 -0.07243,-0.58159 l 0.01065,-0.3643 z"
         style="font-weight:normal;font-family:'Matura MT Script Capitals';-inkscape-font-specification:'Matura MT Script Capitals, Normal';stroke:none"
         id="path2158" />
      <path
         d="m 23.519753,110.46116 0.01491,-0.61355 0.645509,0.0596 0.03622,0.49212 q 0.05113,-0.14487 0.09161,-0.28121 0.03196,-0.11291 0.0703,-0.17469 0.03409,-0.0596 0.121432,-0.10439 0.08309,-0.0447 0.200257,-0.0447 0.132084,0 0.291864,0.0618 l -0.0703,0.27056 q -0.05326,0.21943 -0.134215,0.48573 -0.255647,-0.1683 -0.345123,-0.19387 -0.170431,0.2237 -0.202387,0.33874 0.01278,0.19173 0.0277,0.29612 0.191735,0.0682 0.338732,0.0682 -0.08948,0.25139 -0.21943,0.54964 -0.443122,0 -0.54325,-0.0533 -0.104389,-0.0511 -0.2173,-0.17469 -0.115041,-0.12569 -0.115041,-0.47721 0,-0.23008 0.0085,-0.5049 z"
         style="font-weight:normal;font-family:'Matura MT Script Capitals';-inkscape-font-specification:'Matura MT Script Capitals, Normal';stroke:none"
         id="path2160" />
    </g>
  </g>
</svg>
